<svg width="53" height="47" viewBox="0 0 53 47" fill="none" xmlns="http://www.w3.org/2000/svg">
<path d="M0 5.875C0 2.62998 2.6362 0 5.88889 0H20.6111V11.75C20.6111 13.3748 21.9269 14.6875 23.5556 14.6875H35.3333V18.2309C28.5335 20.1494 23.5556 26.3824 23.5556 33.7812C23.5556 39.2064 26.2332 43.9982 30.337 46.9357C30.0517 46.9725 29.7481 47 29.4444 47H5.88889C2.6362 47 0 44.3654 0 41.125V5.875ZM23.5556 11.75V0L35.3333 11.75H23.5556ZM53 33.7812C53 41.0791 47.0651 47 39.75 47C32.4349 47 26.5 41.0791 26.5 33.7812C26.5 26.4834 32.4349 20.5625 39.75 20.5625C47.0651 20.5625 53 26.4834 53 33.7812ZM43.863 29.8064L38.2778 35.3785L35.637 32.7439C35.0665 32.1656 34.128 32.1656 33.5575 32.7439C32.9778 33.3131 32.9778 34.2494 33.5575 34.8186L37.238 38.4904C37.8085 39.0687 38.747 39.0687 39.3175 38.4904L45.9425 31.8811C46.5222 31.3119 46.5222 30.3756 45.9425 29.8064C45.372 29.2281 44.4335 29.2281 43.863 29.8064Z" fill="#24146C"/>
</svg>
