<svg width="36" height="48" viewBox="0 0 36 48" fill="none" xmlns="http://www.w3.org/2000/svg">
<path d="M24 0V12H36L24 0ZM21 12V0H4.5C2.01469 0 0 2.01469 0 4.5V43.5C0 45.9844 2.01469 48 4.5 48H31.5C33.9853 48 36 45.9853 36 43.5V15H24.0844C22.3406 15 21 13.6594 21 12ZM27.0094 32.2594C26.6531 32.7844 26.0812 33 25.5 33C24.9188 33 24.3487 32.7803 23.9091 32.3408L20.25 28.6781V38.25C20.25 39.4922 19.2422 40.5 18 40.5C16.7578 40.5 15.75 39.4922 15.75 38.25V28.6781L12.0909 32.3372C11.212 33.2161 9.78844 33.2161 8.90906 32.3372C8.02969 31.4583 8.03016 30.0347 8.90906 29.1553L16.4091 21.6553C17.288 20.7764 18.7116 20.7764 19.5909 21.6553L27.0909 29.1553C27.9656 30.0375 27.9656 31.4625 27.0094 32.2594Z" fill="#24146C"/>
</svg>
