<svg width="64" height="58" viewBox="0 0 64 58" fill="none" xmlns="http://www.w3.org/2000/svg">
<path d="M0 7.25C0 3.24551 3.18333 0 7.11111 0H24.8889V14.5C24.8889 16.5051 26.4778 18.125 28.4444 18.125H42.6667V22.4977C34.4556 24.8652 28.4444 32.557 28.4444 41.6875C28.4444 48.3824 31.6778 54.2957 36.6333 57.9207C36.2889 57.966 35.9222 58 35.5556 58H7.11111C3.18333 58 0 54.7488 0 50.75V7.25ZM28.4444 14.5V0L42.6667 14.5H28.4444ZM32 41.6875C32 32.6816 39.1667 25.375 48 25.375C56.8333 25.375 64 32.6816 64 41.6875C64 50.6934 56.8333 58 48 58C39.1667 58 32 50.6934 32 41.6875ZM49.7778 34.3355C49.7778 33.4406 48.9778 32.523 48 32.523C47.0222 32.523 46.2222 33.4406 46.2222 34.3355V39.773H40.8889C39.9111 39.773 39.1111 40.6906 39.1111 41.5855C39.1111 42.6844 39.9111 43.398 40.8889 43.398H46.2222V48.8355C46.2222 49.9344 47.0222 50.648 48 50.648C48.9778 50.648 49.7778 49.9344 49.7778 48.8355V43.398H55.1111C56.0889 43.398 56.8889 42.6844 56.8889 41.5855C56.8889 40.6906 56.0889 39.773 55.1111 39.773H49.7778V34.3355Z" fill="#24146C"/>
</svg>
