<svg width="14" height="16" viewBox="0 0 14 16" fill="none" xmlns="http://www.w3.org/2000/svg">
<path d="M7.48939 14.8384L7.48938 14.8384L7.48644 14.8411C7.36293 14.9541 7.18882 15.0186 7.00005 15.0186C6.81273 15.0186 6.63732 14.9541 6.51027 14.8395L6.50997 14.8392L0.676652 9.58558C0.441441 9.37374 0.441441 9.05467 0.676652 8.84284C0.942156 8.60371 1.39152 8.60369 1.65707 8.84275C1.6571 8.84278 1.65713 8.84281 1.65716 8.84284L5.49867 12.3044L6.33338 13.0566V11.933V1.85907C6.33338 1.61131 6.57135 1.33789 6.96724 1.33789C7.15752 1.33789 7.34559 1.40804 7.47977 1.51775C7.61184 1.62573 7.66671 1.74798 7.66671 1.85907V11.933V13.0562L8.50132 12.3045L12.344 8.84366C12.6096 8.60451 13.059 8.60451 13.3245 8.84366C13.5585 9.05436 13.5592 9.37179 13.3227 9.58476L7.48939 14.8384Z" fill="#000080" stroke="black"/>
</svg>
